<?xml version="1.0" encoding="UTF-8" standalone="no"?><svg xmlns="http://www.w3.org/2000/svg" xmlns:xlink="http://www.w3.org/1999/xlink" contentScriptType="application/ecmascript" contentStyleType="text/css" height="797.25px" preserveAspectRatio="none" style="width:1019px;height:797px;" version="1.1" viewBox="0 0 1019 797" width="1019.25px" zoomAndPan="magnify"><defs><filter height="300%" id="f10c9716kmjyyy" width="300%" x="-1" y="-1"><feGaussianBlur result="blurOut" stdDeviation="1.5"/><feColorMatrix in="blurOut" result="blurOut2" type="matrix" values="0 0 0 0 0 0 0 0 0 0 0 0 0 0 0 0 0 0 .4 0"/><feOffset dx="3.0" dy="3.0" in="blurOut2" result="blurOut3"/><feBlend in="SourceGraphic" in2="blurOut3" mode="normal"/></filter></defs><g><rect fill="#FFFFFF" filter="url(#f10c9716kmjyyy)" height="619.0488" style="stroke:#A80036;stroke-width:0.75;" width="7.5" x="59.625" y="87.9141"/><rect fill="#FFFFFF" filter="url(#f10c9716kmjyyy)" height="602.2852" style="stroke:#A80036;stroke-width:0.75;" width="7.5" x="246.375" y="104.6777"/><rect fill="#FFFFFF" filter="url(#f10c9716kmjyyy)" height="586.2715" style="stroke:#A80036;stroke-width:0.75;" width="7.5" x="391.125" y="127.4414"/><rect fill="#FFFFFF" filter="url(#f10c9716kmjyyy)" height="563.5078" style="stroke:#A80036;stroke-width:0.75;" width="7.5" x="613.125" y="150.2051"/><rect fill="#FFFFFF" filter="url(#f10c9716kmjyyy)" height="540.7441" style="stroke:#A80036;stroke-width:0.75;" width="7.5" x="726.375" y="172.9688"/><rect fill="#FFFFFF" filter="url(#f10c9716kmjyyy)" height="517.9805" style="stroke:#A80036;stroke-width:0.75;" width="7.5" x="848.625" y="195.7324"/><rect fill="#FFFFFF" filter="url(#f10c9716kmjyyy)" height="22.7637" style="stroke:#A80036;stroke-width:0.75;" width="7.5" x="963.75" y="332.3145"/><rect fill="#FFFFFF" filter="url(#f10c9716kmjyyy)" height="160.0957" style="stroke:#000000;stroke-width:1.5;" width="915.375" x="7.5" y="467.1328"/><line style="stroke:#A80036;stroke-width:0.75;stroke-dasharray:5.0,5.0;" x1="63" x2="63" y1="80.4141" y2="720.4629"/><line style="stroke:#A80036;stroke-width:0.75;stroke-dasharray:5.0,5.0;" x1="250.125" x2="250.125" y1="80.4141" y2="720.4629"/><line style="stroke:#A80036;stroke-width:0.75;stroke-dasharray:5.0,5.0;" x1="394.875" x2="394.875" y1="80.4141" y2="720.4629"/><line style="stroke:#A80036;stroke-width:0.75;stroke-dasharray:5.0,5.0;" x1="517.875" x2="517.875" y1="680.2207" y2="720.4629"/><line style="stroke:#A80036;stroke-width:0.75;stroke-dasharray:5.0,5.0;" x1="616.875" x2="616.875" y1="80.4141" y2="720.4629"/><line style="stroke:#A80036;stroke-width:0.75;stroke-dasharray:5.0,5.0;" x1="730.125" x2="730.125" y1="80.4141" y2="720.4629"/><line style="stroke:#A80036;stroke-width:0.75;stroke-dasharray:5.0,5.0;" x1="852.375" x2="852.375" y1="80.4141" y2="720.4629"/><line style="stroke:#A80036;stroke-width:0.75;stroke-dasharray:5.0,5.0;" x1="967.125" x2="967.125" y1="80.4141" y2="720.4629"/><text fill="#000000" font-family="sans-serif" font-size="10.5" lengthAdjust="spacing" textLength="76.5" x="21.375" y="64.8999">Responsável de</text><text fill="#000000" font-family="sans-serif" font-size="10.5" lengthAdjust="spacing" textLength="92.25" x="15" y="78.1069">Recursos Humanos</text><ellipse cx="63.375" cy="11.25" fill="#FEFECE" filter="url(#f10c9716kmjyyy)" rx="6" ry="6" style="stroke:#A80036;stroke-width:1.5;"/><path d="M63.375,17.25 L63.375,37.5 M53.625,23.25 L73.125,23.25 M63.375,37.5 L53.625,48.75 M63.375,37.5 L73.125,48.75 " fill="none" filter="url(#f10c9716kmjyyy)" style="stroke:#A80036;stroke-width:1.5;"/><text fill="#000000" font-family="sans-serif" font-size="10.5" lengthAdjust="spacing" textLength="76.5" x="21.375" y="730.6128">Responsável de</text><text fill="#000000" font-family="sans-serif" font-size="10.5" lengthAdjust="spacing" textLength="92.25" x="15" y="743.8198">Recursos Humanos</text><ellipse cx="63.375" cy="753.627" fill="#FEFECE" filter="url(#f10c9716kmjyyy)" rx="6" ry="6" style="stroke:#A80036;stroke-width:1.5;"/><path d="M63.375,759.627 L63.375,779.877 M53.625,765.627 L73.125,765.627 M63.375,779.877 L53.625,791.127 M63.375,779.877 L73.125,791.127 " fill="none" filter="url(#f10c9716kmjyyy)" style="stroke:#A80036;stroke-width:1.5;"/><rect fill="#FEFECE" filter="url(#f10c9716kmjyyy)" height="23.707" style="stroke:#A80036;stroke-width:1.125;" width="115.5" x="190.875" y="52.957"/><text fill="#000000" font-family="sans-serif" font-size="10.5" lengthAdjust="spacing" textLength="105" x="196.125" y="69.1069">:SpecifyCollaboratorUI</text><rect fill="#FEFECE" filter="url(#f10c9716kmjyyy)" height="23.707" style="stroke:#A80036;stroke-width:1.125;" width="115.5" x="190.875" y="719.7129"/><text fill="#000000" font-family="sans-serif" font-size="10.5" lengthAdjust="spacing" textLength="105" x="196.125" y="735.8628">:SpecifyCollaboratorUI</text><rect fill="#FEFECE" filter="url(#f10c9716kmjyyy)" height="23.707" style="stroke:#A80036;stroke-width:1.125;" width="153" x="316.875" y="52.957"/><text fill="#000000" font-family="sans-serif" font-size="10.5" lengthAdjust="spacing" textLength="142.5" x="322.125" y="69.1069">:SpecifyCollaboratorController</text><rect fill="#FEFECE" filter="url(#f10c9716kmjyyy)" height="23.707" style="stroke:#A80036;stroke-width:1.125;" width="153" x="316.875" y="719.7129"/><text fill="#000000" font-family="sans-serif" font-size="10.5" lengthAdjust="spacing" textLength="142.5" x="322.125" y="735.8628">:SpecifyCollaboratorController</text><rect fill="#FEFECE" filter="url(#f10c9716kmjyyy)" height="23.707" style="stroke:#A80036;stroke-width:1.125;" width="72" x="480.375" y="719.7129"/><text fill="#000000" font-family="sans-serif" font-size="10.5" lengthAdjust="spacing" textLength="61.5" x="485.625" y="735.8628">:Collaborator</text><rect fill="#FEFECE" filter="url(#f10c9716kmjyyy)" height="23.707" style="stroke:#A80036;stroke-width:1.125;" width="105" x="562.875" y="52.957"/><text fill="#000000" font-family="sans-serif" font-size="10.5" lengthAdjust="spacing" textLength="94.5" x="568.125" y="69.1069">:PersistenceContext</text><rect fill="#FEFECE" filter="url(#f10c9716kmjyyy)" height="23.707" style="stroke:#A80036;stroke-width:1.125;" width="105" x="562.875" y="719.7129"/><text fill="#000000" font-family="sans-serif" font-size="10.5" lengthAdjust="spacing" textLength="94.5" x="568.125" y="735.8628">:PersistenceContext</text><rect fill="#FEFECE" filter="url(#f10c9716kmjyyy)" height="23.707" style="stroke:#A80036;stroke-width:1.125;" width="100.5" x="678.375" y="52.957"/><text fill="#000000" font-family="sans-serif" font-size="10.5" lengthAdjust="spacing" textLength="90" x="683.625" y="69.1069">:RepositoryFactory</text><rect fill="#FEFECE" filter="url(#f10c9716kmjyyy)" height="23.707" style="stroke:#A80036;stroke-width:1.125;" width="100.5" x="678.375" y="719.7129"/><text fill="#000000" font-family="sans-serif" font-size="10.5" lengthAdjust="spacing" textLength="90" x="683.625" y="735.8628">:RepositoryFactory</text><rect fill="#FEFECE" filter="url(#f10c9716kmjyyy)" height="23.707" style="stroke:#A80036;stroke-width:1.125;" width="123" x="789.375" y="52.957"/><text fill="#000000" font-family="sans-serif" font-size="10.5" lengthAdjust="spacing" textLength="112.5" x="794.625" y="69.1069">:CollaboratorRepository</text><rect fill="#FEFECE" filter="url(#f10c9716kmjyyy)" height="23.707" style="stroke:#A80036;stroke-width:1.125;" width="123" x="789.375" y="719.7129"/><text fill="#000000" font-family="sans-serif" font-size="10.5" lengthAdjust="spacing" textLength="112.5" x="794.625" y="735.8628">:CollaboratorRepository</text><rect fill="#FEFECE" filter="url(#f10c9716kmjyyy)" height="23.707" style="stroke:#A80036;stroke-width:1.125;" width="86.25" x="922.875" y="52.957"/><text fill="#000000" font-family="sans-serif" font-size="10.5" lengthAdjust="spacing" textLength="75.75" x="928.125" y="69.1069">:RoleRepository</text><rect fill="#FEFECE" filter="url(#f10c9716kmjyyy)" height="23.707" style="stroke:#A80036;stroke-width:1.125;" width="86.25" x="922.875" y="719.7129"/><text fill="#000000" font-family="sans-serif" font-size="10.5" lengthAdjust="spacing" textLength="75.75" x="928.125" y="735.8628">:RoleRepository</text><rect fill="#FFFFFF" filter="url(#f10c9716kmjyyy)" height="619.0488" style="stroke:#A80036;stroke-width:0.75;" width="7.5" x="59.625" y="87.9141"/><rect fill="#FFFFFF" filter="url(#f10c9716kmjyyy)" height="602.2852" style="stroke:#A80036;stroke-width:0.75;" width="7.5" x="246.375" y="104.6777"/><rect fill="#FFFFFF" filter="url(#f10c9716kmjyyy)" height="586.2715" style="stroke:#A80036;stroke-width:0.75;" width="7.5" x="391.125" y="127.4414"/><rect fill="#FFFFFF" filter="url(#f10c9716kmjyyy)" height="563.5078" style="stroke:#A80036;stroke-width:0.75;" width="7.5" x="613.125" y="150.2051"/><rect fill="#FFFFFF" filter="url(#f10c9716kmjyyy)" height="540.7441" style="stroke:#A80036;stroke-width:0.75;" width="7.5" x="726.375" y="172.9688"/><rect fill="#FFFFFF" filter="url(#f10c9716kmjyyy)" height="517.9805" style="stroke:#A80036;stroke-width:0.75;" width="7.5" x="848.625" y="195.7324"/><rect fill="#FFFFFF" filter="url(#f10c9716kmjyyy)" height="22.7637" style="stroke:#A80036;stroke-width:0.75;" width="7.5" x="963.75" y="332.3145"/><polygon fill="#A80036" points="237.375,101.6777,244.875,104.6777,237.375,107.6777,240.375,104.6777" style="stroke:#A80036;stroke-width:0.75;"/><line style="stroke:#A80036;stroke-width:0.75;" x1="67.125" x2="241.875" y1="104.6777" y2="104.6777"/><text fill="#000000" font-family="sans-serif" font-size="9.75" font-weight="bold" lengthAdjust="spacing" textLength="5.25" x="72.375" y="101.0354">1</text><text fill="#000000" font-family="sans-serif" font-size="9.75" lengthAdjust="spacing" textLength="65.25" x="80.625" y="101.0354">start user case</text><polygon fill="#A80036" points="382.125,124.4414,389.625,127.4414,382.125,130.4414,385.125,127.4414" style="stroke:#A80036;stroke-width:0.75;"/><line style="stroke:#A80036;stroke-width:0.75;" x1="253.875" x2="386.625" y1="127.4414" y2="127.4414"/><text fill="#000000" font-family="sans-serif" font-size="9.75" font-weight="bold" lengthAdjust="spacing" textLength="5.25" x="259.125" y="123.7991">2</text><text fill="#000000" font-family="sans-serif" font-size="9.75" lengthAdjust="spacing" textLength="23.25" x="267.375" y="123.7991">new()</text><polygon fill="#A80036" points="604.125,147.2051,611.625,150.2051,604.125,153.2051,607.125,150.2051" style="stroke:#A80036;stroke-width:0.75;"/><line style="stroke:#A80036;stroke-width:0.75;" x1="398.625" x2="608.625" y1="150.2051" y2="150.2051"/><text fill="#000000" font-family="sans-serif" font-size="9.75" font-weight="bold" lengthAdjust="spacing" textLength="5.25" x="403.875" y="146.5627">3</text><text fill="#000000" font-family="sans-serif" font-size="9.75" lengthAdjust="spacing" textLength="56.25" x="412.125" y="146.5627">repositories()</text><polygon fill="#A80036" points="717.375,169.9688,724.875,172.9688,717.375,175.9688,720.375,172.9688" style="stroke:#A80036;stroke-width:0.75;"/><line style="stroke:#A80036;stroke-width:0.75;" x1="620.625" x2="721.875" y1="172.9688" y2="172.9688"/><text fill="#000000" font-family="sans-serif" font-size="9.75" font-weight="bold" lengthAdjust="spacing" textLength="5.25" x="625.875" y="169.3264">4</text><text fill="#000000" font-family="sans-serif" font-size="9.75" lengthAdjust="spacing" textLength="27" x="634.125" y="169.3264">create</text><polygon fill="#A80036" points="839.625,192.7324,847.125,195.7324,839.625,198.7324,842.625,195.7324" style="stroke:#A80036;stroke-width:0.75;"/><line style="stroke:#A80036;stroke-width:0.75;" x1="733.875" x2="844.125" y1="195.7324" y2="195.7324"/><text fill="#000000" font-family="sans-serif" font-size="9.75" font-weight="bold" lengthAdjust="spacing" textLength="5.25" x="739.125" y="192.0901">5</text><text fill="#000000" font-family="sans-serif" font-size="9.75" lengthAdjust="spacing" textLength="27" x="747.375" y="192.0901">create</text><polygon fill="#A80036" points="75.375,215.4961,67.875,218.4961,75.375,221.4961,72.375,218.4961" style="stroke:#A80036;stroke-width:0.75;"/><line style="stroke:#A80036;stroke-width:0.75;" x1="70.875" x2="245.625" y1="218.4961" y2="218.4961"/><text fill="#000000" font-family="sans-serif" font-size="9.75" font-weight="bold" lengthAdjust="spacing" textLength="5.25" x="79.875" y="214.8538">6</text><text fill="#000000" font-family="sans-serif" font-size="9.75" lengthAdjust="spacing" textLength="75.75" x="88.125" y="214.8538">requests the data</text><polygon fill="#A80036" points="237.375,238.2598,244.875,241.2598,237.375,244.2598,240.375,241.2598" style="stroke:#A80036;stroke-width:0.75;"/><line style="stroke:#A80036;stroke-width:0.75;" x1="67.125" x2="241.875" y1="241.2598" y2="241.2598"/><text fill="#000000" font-family="sans-serif" font-size="9.75" font-weight="bold" lengthAdjust="spacing" textLength="5.25" x="72.375" y="237.6174">7</text><text fill="#000000" font-family="sans-serif" font-size="9.75" lengthAdjust="spacing" textLength="62.25" x="80.625" y="237.6174">insert the data</text><polygon fill="#A80036" points="382.125,261.0234,389.625,264.0234,382.125,267.0234,385.125,264.0234" style="stroke:#A80036;stroke-width:0.75;"/><line style="stroke:#A80036;stroke-width:0.75;" x1="253.875" x2="386.625" y1="264.0234" y2="264.0234"/><text fill="#000000" font-family="sans-serif" font-size="9.75" font-weight="bold" lengthAdjust="spacing" textLength="5.25" x="259.125" y="260.3811">8</text><text fill="#000000" font-family="sans-serif" font-size="9.75" lengthAdjust="spacing" textLength="42.75" x="267.375" y="260.3811">rolesList()</text><polygon fill="#A80036" points="604.125,283.7871,611.625,286.7871,604.125,289.7871,607.125,286.7871" style="stroke:#A80036;stroke-width:0.75;"/><line style="stroke:#A80036;stroke-width:0.75;" x1="398.625" x2="608.625" y1="286.7871" y2="286.7871"/><text fill="#000000" font-family="sans-serif" font-size="9.75" font-weight="bold" lengthAdjust="spacing" textLength="5.25" x="403.875" y="283.1448">9</text><text fill="#000000" font-family="sans-serif" font-size="9.75" lengthAdjust="spacing" textLength="56.25" x="412.125" y="283.1448">repositories()</text><polygon fill="#A80036" points="717.375,306.5508,724.875,309.5508,717.375,312.5508,720.375,309.5508" style="stroke:#A80036;stroke-width:0.75;"/><line style="stroke:#A80036;stroke-width:0.75;" x1="620.625" x2="721.875" y1="309.5508" y2="309.5508"/><text fill="#000000" font-family="sans-serif" font-size="9.75" font-weight="bold" lengthAdjust="spacing" textLength="10.5" x="625.875" y="305.9084">10</text><text fill="#000000" font-family="sans-serif" font-size="9.75" lengthAdjust="spacing" textLength="27" x="639.375" y="305.9084">create</text><polygon fill="#A80036" points="954.75,329.3145,962.25,332.3145,954.75,335.3145,957.75,332.3145" style="stroke:#A80036;stroke-width:0.75;"/><line style="stroke:#A80036;stroke-width:0.75;" x1="733.875" x2="959.25" y1="332.3145" y2="332.3145"/><text fill="#000000" font-family="sans-serif" font-size="9.75" font-weight="bold" lengthAdjust="spacing" textLength="10.5" x="739.125" y="328.6721">11</text><text fill="#000000" font-family="sans-serif" font-size="9.75" lengthAdjust="spacing" textLength="27" x="752.625" y="328.6721">create</text><polygon fill="#A80036" points="958.5,352.0781,966,355.0781,958.5,358.0781,961.5,355.0781" style="stroke:#A80036;stroke-width:0.75;"/><line style="stroke:#A80036;stroke-width:0.75;" x1="398.625" x2="963" y1="355.0781" y2="355.0781"/><text fill="#000000" font-family="sans-serif" font-size="9.75" font-weight="bold" lengthAdjust="spacing" textLength="10.5" x="403.875" y="351.4358">12</text><text fill="#000000" font-family="sans-serif" font-size="9.75" lengthAdjust="spacing" textLength="26.25" x="417.375" y="351.4358">findAll</text><polygon fill="#A80036" points="262.125,374.8418,254.625,377.8418,262.125,380.8418,259.125,377.8418" style="stroke:#A80036;stroke-width:0.75;"/><line style="stroke:#A80036;stroke-width:0.75;" x1="257.625" x2="390.375" y1="377.8418" y2="377.8418"/><text fill="#000000" font-family="sans-serif" font-size="9.75" font-weight="bold" lengthAdjust="spacing" textLength="10.5" x="266.625" y="374.1995">13</text><text fill="#000000" font-family="sans-serif" font-size="9.75" lengthAdjust="spacing" textLength="36.75" x="280.125" y="374.1995">rolesList</text><line style="stroke:#A80036;stroke-width:0.75;" x1="253.875" x2="285.375" y1="400.6055" y2="400.6055"/><line style="stroke:#A80036;stroke-width:0.75;" x1="285.375" x2="285.375" y1="400.6055" y2="410.3555"/><line style="stroke:#A80036;stroke-width:0.75;" x1="254.625" x2="285.375" y1="410.3555" y2="410.3555"/><polygon fill="#A80036" points="262.125,407.3555,254.625,410.3555,262.125,413.3555,259.125,410.3555" style="stroke:#A80036;stroke-width:0.75;"/><text fill="#000000" font-family="sans-serif" font-size="9.75" font-weight="bold" lengthAdjust="spacing" textLength="10.5" x="259.125" y="396.9631">14</text><text fill="#000000" font-family="sans-serif" font-size="9.75" lengthAdjust="spacing" textLength="40.5" x="272.625" y="396.9631">doShow()</text><polygon fill="#A80036" points="75.375,430.1191,67.875,433.1191,75.375,436.1191,72.375,433.1191" style="stroke:#A80036;stroke-width:0.75;"/><line style="stroke:#A80036;stroke-width:0.75;" x1="70.875" x2="245.625" y1="433.1191" y2="433.1191"/><text fill="#000000" font-family="sans-serif" font-size="9.75" font-weight="bold" lengthAdjust="spacing" textLength="10.5" x="79.875" y="429.4768">15</text><text fill="#000000" font-family="sans-serif" font-size="9.75" lengthAdjust="spacing" textLength="61.5" x="93.375" y="429.4768">select the role</text><polygon fill="#A80036" points="237.375,452.8828,244.875,455.8828,237.375,458.8828,240.375,455.8828" style="stroke:#A80036;stroke-width:0.75;"/><line style="stroke:#A80036;stroke-width:0.75;" x1="67.125" x2="241.875" y1="455.8828" y2="455.8828"/><text fill="#000000" font-family="sans-serif" font-size="9.75" font-weight="bold" lengthAdjust="spacing" textLength="10.5" x="72.375" y="452.2405">16</text><text fill="#000000" font-family="sans-serif" font-size="9.75" lengthAdjust="spacing" textLength="55.5" x="85.875" y="452.2405">role selected</text><path d="M7.5,467.1328 L56.25,467.1328 L56.25,473.1328 L48.75,480.6328 L7.5,480.6328 L7.5,467.1328 " fill="#EEEEEE" style="stroke:#000000;stroke-width:0.75;"/><rect fill="none" height="160.0957" style="stroke:#000000;stroke-width:1.5;" width="915.375" x="7.5" y="467.1328"/><text fill="#000000" font-family="sans-serif" font-size="9.75" font-weight="bold" lengthAdjust="spacing" textLength="15" x="18.75" y="478.0042">opt</text><a href="" target="_top" title="" xlink:actuate="onRequest" xlink:href="" xlink:show="new" xlink:title="" xlink:type="simple"><text fill="#0000FF" font-family="sans-serif" font-size="8.25" font-weight="bold" lengthAdjust="spacing" text-decoration="underline" textLength="128.25" x="67.5" y="477.197">select hierarchical responsible</text></a><polygon fill="#A80036" points="382.125,494.6602,389.625,497.6602,382.125,500.6602,385.125,497.6602" style="stroke:#A80036;stroke-width:0.75;"/><line style="stroke:#A80036;stroke-width:0.75;" x1="253.875" x2="386.625" y1="497.6602" y2="497.6602"/><text fill="#000000" font-family="sans-serif" font-size="9.75" font-weight="bold" lengthAdjust="spacing" textLength="10.5" x="259.125" y="494.0178">17</text><text fill="#000000" font-family="sans-serif" font-size="9.75" lengthAdjust="spacing" textLength="72" x="272.625" y="494.0178">collaboratorList()</text><polygon fill="#A80036" points="839.625,517.4238,847.125,520.4238,839.625,523.4238,842.625,520.4238" style="stroke:#A80036;stroke-width:0.75;"/><line style="stroke:#A80036;stroke-width:0.75;" x1="398.625" x2="844.125" y1="520.4238" y2="520.4238"/><text fill="#000000" font-family="sans-serif" font-size="9.75" font-weight="bold" lengthAdjust="spacing" textLength="10.5" x="403.875" y="516.7815">18</text><text fill="#000000" font-family="sans-serif" font-size="9.75" lengthAdjust="spacing" textLength="26.25" x="417.375" y="516.7815">findAll</text><polygon fill="#A80036" points="262.125,540.1875,254.625,543.1875,262.125,546.1875,259.125,543.1875" style="stroke:#A80036;stroke-width:0.75;"/><line style="stroke:#A80036;stroke-width:0.75;" x1="257.625" x2="390.375" y1="543.1875" y2="543.1875"/><text fill="#000000" font-family="sans-serif" font-size="9.75" font-weight="bold" lengthAdjust="spacing" textLength="10.5" x="266.625" y="539.5452">19</text><text fill="#000000" font-family="sans-serif" font-size="9.75" lengthAdjust="spacing" textLength="66" x="280.125" y="539.5452">collaboratorList</text><line style="stroke:#A80036;stroke-width:0.75;" x1="253.875" x2="285.375" y1="565.9512" y2="565.9512"/><line style="stroke:#A80036;stroke-width:0.75;" x1="285.375" x2="285.375" y1="565.9512" y2="575.7012"/><line style="stroke:#A80036;stroke-width:0.75;" x1="254.625" x2="285.375" y1="575.7012" y2="575.7012"/><polygon fill="#A80036" points="262.125,572.7012,254.625,575.7012,262.125,578.7012,259.125,575.7012" style="stroke:#A80036;stroke-width:0.75;"/><text fill="#000000" font-family="sans-serif" font-size="9.75" font-weight="bold" lengthAdjust="spacing" textLength="10.5" x="259.125" y="562.3088">20</text><text fill="#000000" font-family="sans-serif" font-size="9.75" lengthAdjust="spacing" textLength="40.5" x="272.625" y="562.3088">doShow()</text><polygon fill="#A80036" points="75.375,595.4648,67.875,598.4648,75.375,601.4648,72.375,598.4648" style="stroke:#A80036;stroke-width:0.75;"/><line style="stroke:#A80036;stroke-width:0.75;" x1="70.875" x2="245.625" y1="598.4648" y2="598.4648"/><text fill="#000000" font-family="sans-serif" font-size="9.75" font-weight="bold" lengthAdjust="spacing" textLength="10.5" x="79.875" y="594.8225">21</text><text fill="#000000" font-family="sans-serif" font-size="9.75" lengthAdjust="spacing" textLength="147.75" x="93.375" y="594.8225">select the hierarchical responsible</text><polygon fill="#A80036" points="237.375,618.2285,244.875,621.2285,237.375,624.2285,240.375,621.2285" style="stroke:#A80036;stroke-width:0.75;"/><line style="stroke:#A80036;stroke-width:0.75;" x1="67.125" x2="241.875" y1="621.2285" y2="621.2285"/><text fill="#000000" font-family="sans-serif" font-size="9.75" font-weight="bold" lengthAdjust="spacing" textLength="10.5" x="72.375" y="617.5862">22</text><text fill="#000000" font-family="sans-serif" font-size="9.75" lengthAdjust="spacing" textLength="141.75" x="85.875" y="617.5862">hierarchical responsible selected</text><polygon fill="#A80036" points="382.125,646.2422,389.625,649.2422,382.125,652.2422,385.125,649.2422" style="stroke:#A80036;stroke-width:0.75;"/><line style="stroke:#A80036;stroke-width:0.75;" x1="253.875" x2="386.625" y1="649.2422" y2="649.2422"/><text fill="#000000" font-family="sans-serif" font-size="9.75" font-weight="bold" lengthAdjust="spacing" textLength="10.5" x="259.125" y="645.5999">23</text><text fill="#000000" font-family="sans-serif" font-size="9.75" lengthAdjust="spacing" textLength="99" x="272.625" y="645.5999">SpecifyCollaborator(...)</text><polygon fill="#A80036" points="471.375,669.0059,478.875,672.0059,471.375,675.0059,474.375,672.0059" style="stroke:#A80036;stroke-width:0.75;"/><line style="stroke:#A80036;stroke-width:0.75;" x1="398.625" x2="475.875" y1="672.0059" y2="672.0059"/><text fill="#000000" font-family="sans-serif" font-size="9.75" font-weight="bold" lengthAdjust="spacing" textLength="10.5" x="403.875" y="668.3635">24</text><text fill="#000000" font-family="sans-serif" font-size="9.75" lengthAdjust="spacing" textLength="42" x="417.375" y="668.3635">create(...)</text><rect fill="#FEFECE" filter="url(#f10c9716kmjyyy)" height="23.707" style="stroke:#A80036;stroke-width:1.125;" width="72" x="480.375" y="655.2422"/><text fill="#000000" font-family="sans-serif" font-size="10.5" lengthAdjust="spacing" textLength="61.5" x="485.625" y="671.3921">:Collaborator</text><polygon fill="#A80036" points="839.625,703.9629,847.125,706.9629,839.625,709.9629,842.625,706.9629" style="stroke:#A80036;stroke-width:0.75;"/><line style="stroke:#A80036;stroke-width:0.75;" x1="398.625" x2="844.125" y1="706.9629" y2="706.9629"/><text fill="#000000" font-family="sans-serif" font-size="9.75" font-weight="bold" lengthAdjust="spacing" textLength="10.5" x="403.875" y="703.3206">25</text><text fill="#000000" font-family="sans-serif" font-size="9.75" lengthAdjust="spacing" textLength="25.5" x="417.375" y="703.3206">save()</text><!--MD5=[a59273f4f6d370ea37b12adb6506c33c]
@startuml
autonumber
actor "Responsável de \nRecursos Humanos" as RRH

participant ":SpecifyCollaboratorUI" as UI
participant ":SpecifyCollaboratorController" as CTRL
participant ":Collaborator" as COLLABORATOR
participant ":PersistenceContext" as PERSISTENCE
participant ":RepositoryFactory" as REP
participant ":CollaboratorRepository" as COLLABORATOR_REP
participant ":RoleRepository" as ROLE_REP

activate RRH
RRH -> UI: start user case
activate UI
UI -> CTRL: new()
activate CTRL
CTRL -> PERSISTENCE: repositories()
activate PERSISTENCE
PERSISTENCE -> REP: create
activate REP
REP -> COLLABORATOR_REP: create
activate COLLABORATOR_REP
UI -> RRH: requests the data
RRH -> UI: insert the data

UI -> CTRL: rolesList()
CTRL -> PERSISTENCE: repositories()
PERSISTENCE -> REP: create
REP -> ROLE_REP: create
activate ROLE_REP
CTRL -> ROLE_REP: findAll
deactivate ROLE_REP
CTRL -> UI: rolesList
UI -> UI: doShow()
UI -> RRH: select the role
RRH -> UI: role selected

OPT [                select hierarchical responsible ]
UI -> CTRL: collaboratorList()
CTRL -> COLLABORATOR_REP: findAll
CTRL -> UI: collaboratorList
UI -> UI: doShow()
UI -> RRH: select the hierarchical responsible
RRH -> UI: hierarchical responsible selected
end OPT


UI -> CTRL: SpecifyCollaborator(...)
CTRL -> COLLABORATOR ** : create(...)
CTRL -> COLLABORATOR_REP: save()


deactivate UI
deactivate RRH
@enduml

PlantUML version 1.2021.2(Sun Mar 07 11:10:27 GMT 2021)
(GPL source distribution)
Java Runtime: OpenJDK Runtime Environment
JVM: OpenJDK 64-Bit Server VM
Default Encoding: Cp1252
Language: pt
Country: PT
--></g></svg>